<?xml version="1.0" encoding="utf-8"?><!-- Generator: Adobe Illustrator 18.0.0, SVG Export Plug-In . SVG Version: 6.00 Build 0)  -->
<!DOCTYPE svg PUBLIC "-//W3C//DTD SVG 1.1//EN" "http://www.w3.org/Graphics/SVG/1.1/DTD/svg11.dtd">
<svg version="1.1" id="Layer_1" xmlns="http://www.w3.org/2000/svg"
    xmlns:xlink="http://www.w3.org/1999/xlink" x="0px" y="0px" viewBox="0 0 48 48"
    enable-background="new 0 0 48 48" xml:space="preserve">
<g id="_x31_Sunny" display="none">
	<rect display="inline" fill="#385CE0" width="48" height="48" />
    <circle display="inline" fill="none" stroke="#FFFFFF" stroke-width="2" stroke-miterlimit="10"
        cx="24.1" cy="24" r="9.6" />
    <rect x="22.5" y="0" display="inline" fill="#FFFFFF" width="3" height="9.4" />
    <rect x="22.5" y="38.6" display="inline" fill="#FFFFFF" width="3" height="9.4" />
    <rect y="22.5" display="inline" fill="#FFFFFF" width="9.4" height="3" />
    <rect x="38.6" y="22.5" display="inline" fill="#FFFFFF" width="9.4" height="3" />

    <rect x="9.1" y="5.8" transform="matrix(-0.7068 0.7074 -0.7074 -0.7068 25.491 10.3847)"
        display="inline" fill="#FFFFFF" width="3" height="9.4" />

    <rect x="36.3" y="32.7" transform="matrix(-0.7068 0.7074 -0.7074 -0.7068 90.9932 37.082)"
        display="inline" fill="#FFFFFF" width="3" height="9.4" />

    <rect x="8.6" y="32.7" transform="matrix(-0.7173 -0.6968 0.6968 -0.7173 -8.6653 71.2807)"
        display="inline" fill="#FFFFFF" width="3" height="9.4" />

    <rect x="35.7" y="5.8" transform="matrix(-0.7173 -0.6968 0.6968 -0.7173 56.646 43.9351)"
        display="inline" fill="#FFFFFF" width="3" height="9.4" />
</g>
    <g id="_x32_Mostly_Sunny" display="none">
	<rect display="inline" fill="#385CE0" width="48" height="48" />
        <path display="inline" fill="none" stroke="#FFFFFF" stroke-width="2" stroke-miterlimit="10"
            d="M30,22.6c0.8,5.9-3.8,9.9-8.5,9.9
		S13,28.7,13,24s3.8-8.5,8.5-8.5c1.1,0,2.1,0.2,3.1,0.6" />
        <rect x="20.1" y="2.7" display="inline" fill="#FEFEFE" width="2.7" height="8.3" />
        <rect x="20.1" y="36.5" display="inline" fill="#FEFEFE" width="2.7" height="8.3" />
        <rect x="0.2" y="22.6" display="inline" fill="#FEFEFE" width="8.3" height="2.7" />

        <rect x="8.2" y="7.8" transform="matrix(-0.7068 0.7074 -0.7074 -0.7068 24.8336 13.6858)"
            display="inline" fill="#FEFEFE" width="2.7" height="8.3" />

        <rect x="32.3" y="31.6" transform="matrix(-0.7068 0.7074 -0.7074 -0.7068 82.7392 37.2869)"
            display="inline" fill="#FEFEFE" width="2.7" height="8.3" />

        <rect x="7.8" y="31.6" transform="matrix(-0.7173 -0.6968 0.6968 -0.7173 -9.1916 67.851)"
            display="inline" fill="#FEFEFE" width="2.7" height="8.3" />
        <path display="inline" fill="none" stroke="#FFFFFF" stroke-width="2" stroke-miterlimit="10"
            d="M42.7,13.1c-0.5,0-1,0.1-1.4,0.3
		c-0.7-2.3-2.8-3.9-5.2-3.9c-2.5,0-4.6,1.7-5.3,4.1c-0.7-0.5-1.5-0.8-2.4-0.8c-2.3,0-4.2,2-4.2,4.4s1.9,4.2,4.2,4.2h15.2
		c1.8-0.5,3.1-2.1,3.1-4.1C46.8,15,45,13.1,42.7,13.1z" />
</g>
    <g id="_x33_Partly_Sunny" display="none">
	<rect display="inline" fill="#385CE0" width="48" height="48" />
        <g display="inline">
		<path fill="none" stroke="#FFFFFF" stroke-width="2" stroke-miterlimit="10" d="M24.8,18c-4.4,0-8.1,3.2-8.8,7.4c0,0,0,0,0,0
			c3,0,5.5,2.1,6.5,5c0.5-0.2,1.1-0.4,1.8-0.4c2.6,0,4.6,2,5,4.7c2.7-1.5,4.5-4.4,4.5-7.7C33.7,22,29.7,18,24.8,18z" />
            <path fill="none" stroke="#FFFFFF" stroke-width="2" stroke-miterlimit="10" d="M24,30.4c-0.6,0-1.2,0.1-1.8,0.4
			c-0.9-2.9-3.5-5-6.5-5c-3.1,0-5.7,2.2-6.5,5.2c-0.8-0.6-1.9-1-3-1c-2.9,0-5.3,2.5-5.3,5.6s2.4,5.4,5.3,5.4h19
			c2.2-0.6,3.8-2.7,3.8-5.2C29.1,32.9,26.8,30.4,24,30.4z" />
	</g>
        <rect x="23.2" y="4.6" display="inline" fill="#FFFFFF" width="2.8" height="8.7" />
        <rect x="38.3" y="25.5" display="inline" fill="#FFFFFF" width="8.7" height="2.8" />

        <rect x="10.8" y="10" transform="matrix(-0.7068 0.7074 -0.7074 -0.7068 30.9864 15.8271)"
            display="inline" fill="#FFFFFF" width="2.8" height="8.7" />

        <rect x="36" y="34.9" transform="matrix(-0.7068 0.7074 -0.7074 -0.7068 91.7253 40.583)"
            display="inline" fill="#FFFFFF" width="2.8" height="8.7" />

        <rect x="37.2" y="10.6" transform="matrix(-0.7173 -0.6968 0.6968 -0.7173 55.8595 52.5673)"
            display="inline" fill="#FFFFFF" width="2.8" height="8.7" />
</g>
    <g id="_x34_Intermittent_Clouds" display="none">
	<rect display="inline" fill="#385CE0" width="48" height="48" />

        <ellipse display="inline" fill="none" stroke="#FFFFFF" stroke-width="2"
            stroke-miterlimit="10" cx="20.9" cy="23.1" rx="8" ry="7.8" />
        <rect x="19.5" y="3.6" display="inline" fill="#FFFFFF" width="2.5" height="7.6" />
        <rect x="0.9" y="21.8" display="inline" fill="#FFFFFF" width="7.8" height="2.5" />
        <rect x="33.2" y="21.8" display="inline" fill="#FFFFFF" width="7.8" height="2.5" />
        <polygon display="inline" fill="#FFFFFF" points="6,10.3 7.8,8.5 13.3,13.9 11.5,15.6 	" />
        <polygon display="inline" fill="#FFFFFF"
            points="28.6,32.1 30.3,30.3 35.8,35.7 34.1,37.5 	" />
        <path display="inline" fill="none" stroke="#FFFFFF" stroke-width="2" stroke-miterlimit="10"
            d="M43.4,11.4
		c-0.5,0-0.9,0.1-1.3,0.3c-0.7-2.1-2.5-3.5-4.7-3.5c-2.3,0-4.1,1.6-4.8,3.7c-0.6-0.4-1.4-0.7-2.2-0.7c-2.1,0-3.8,1.8-3.8,4
		s1.7,3.9,3.8,3.9h13.8c1.6-0.4,2.8-1.9,2.8-3.7C47.1,13.1,45.4,11.4,43.4,11.4z" />
        <path display="inline" fill="none" stroke="#FFFFFF" stroke-width="2" stroke-miterlimit="10"
            d="M19.7,36.3
		c-0.5,0-0.9,0.1-1.4,0.3c-0.7-2.2-2.7-3.8-5-3.8c-2.4,0-4.4,1.7-5.1,4C7.7,36.3,6.9,36,6,36c-2.3,0-4.1,1.9-4.1,4.3
		c0,2.4,1.8,4.1,4.1,4.1h14.7c1.7-0.5,3-2.1,3-4C23.7,38.2,21.9,36.3,19.7,36.3z" />
</g>
    <g id="_x35_Hazy_Sunshine" display="none">
	<rect display="inline" fill="#385CE0" width="48" height="48" />
        <path display="inline" fill="none" stroke="#FFFFFF" stroke-width="2" stroke-miterlimit="10"
            d="M2.4,28c4-1.1,12.6-4.1,19.2-0.1
		c2.4,1.4,15.9,6.9,20.7-0.1" />
        <path display="inline" fill="none" stroke="#FFFFFF" stroke-width="2" stroke-miterlimit="10"
            d="M2.7,35.4
		c4-1.1,12.6-4.1,19.2-0.1c2.4,1.4,15.9,6.9,20.7-0.1" />
        <path display="inline" fill="none" stroke="#FFFFFF" stroke-width="2" stroke-miterlimit="10"
            d="M2.7,43.2
		c4-1.1,12.6-4.1,19.2-0.1c2.4,1.4,15.9,6.9,20.7-0.1" />

        <ellipse display="inline" fill="none" stroke="#FFFFFF" stroke-width="2"
            stroke-miterlimit="10" cx="25.6" cy="20.9" rx="8" ry="7.8" />
        <rect x="24.2" y="1.5" display="inline" fill="#FFFFFF" width="2.5" height="7.6" />
        <rect x="37.9" y="20.9" display="inline" fill="#FFFFFF" width="7.8" height="2.5" />

        <rect x="37.2" y="6.2" transform="matrix(0.6456 0.7637 -0.7637 0.6456 21.3124 -25.7709)"
            display="inline" fill="#FFFFFF" width="2.5" height="7.8" />
        <polygon display="inline" fill="#FFFFFF"
            points="10.8,8.1 12.6,6.4 18.1,11.8 16.3,13.5 	" />
</g>
    <g id="_x36_Mostly_Cloudy" display="none">
	<rect display="inline" fill="#385CE0" width="48" height="48" />
        <rect x="17.2" y="2.8" display="inline" fill="#FFFFFF" width="2.5" height="7.5" />
        <rect x="0.1" y="22.1" display="inline" fill="#FFFFFF" width="7.7" height="2.4" />

        <rect x="30" y="7.4" transform="matrix(0.6456 0.7637 -0.7637 0.6456 19.663 -19.8404)"
            display="inline" fill="#FFFFFF" width="2.4" height="7.7" />
        <polygon display="inline" fill="#FFFFFF" points="3.9,9.4 5.7,7.6 11.1,12.9 9.4,14.7 	" />
        <path display="inline" fill="none" stroke="#FFFFFF" stroke-width="2" stroke-miterlimit="10"
            d="M39.8,31.3
		c-0.7-5.9-5.9-7.7-10-7.7c-5.2,0-8.5,5.7-8.9,7c-1-0.8-4.4-1.4-5.2-1.3c-3.1,0.1-6.1,2.4-6.8,6.4c-0.6,4.1,2.5,8.3,6.8,8.3l25.3,0
		C47.8,44,49.1,30.5,39.8,31.3z" />
        <path display="inline" fill="none" stroke="#FFFFFF" stroke-width="2" stroke-miterlimit="10"
            d="M15,29.2c0.2,0,0.4-0.1,0.7-0.1
		c0.8,0,4.2,0.5,5.2,1.3c0.4-1.3,3.7-6.9,8.9-7c0.1,0,0.1,0,0.2,0c0-0.1,0-0.1,0-0.2c0-4.6-3.9-8.3-8.7-8.3c-4.8,0-8.7,3.7-8.7,8.3
		C12.4,25.6,13.4,27.7,15,29.2z" />
</g>
    <g id="_x37_Cloudy" display="none">
	<rect display="inline" fill="#385CE0" width="48" height="48" />
        <path display="inline" fill="none" stroke="#FFFFFF" stroke-width="2" stroke-miterlimit="10"
            d="M38.6,22.5
		c-0.3-8.2-6-11.8-12-11.8c-7.1,0-10.3,7.5-10.8,9.1c-1.9-1.4-5.3-1.8-6.3-1.7c-3.7,0.2-7.4,3.1-8.2,8.4c-0.8,5.4,3,10.9,8.2,10.9
		l30.7,0C48.5,37.5,49.9,21.4,38.6,22.5z" />
</g>
    <g id="_x38_Dreary__x28_Overcast_x29_" display="none">
	<rect display="inline" fill="#385CE0" width="48" height="48" />
        <path display="inline" fill="none" stroke="#FFFFFF" stroke-width="2" stroke-miterlimit="10"
            d="M38.6,26.4
		c-0.3-8.2-6-11.8-12-11.8c-7.1,0-10.3,7.5-10.8,9.1c-1.9-1.4-5.3-1.8-6.3-1.7c-3.7,0.2-7.4,3.1-8.2,8.4c-0.8,5.4,3,10.9,8.2,10.9
		l30.7,0C48.5,41.4,49.9,25.3,38.6,26.4z" />
        <path display="inline" fill="none" stroke="#FFFFFF" stroke-width="2" stroke-miterlimit="10"
            d="M15.8,23.6
		c0.5-1.7,3.7-9.1,10.8-9.1l-0.4-1.7c-0.7-3.4-4-5.6-7.4-5.6c-3.6,0-6.6,2.5-7.6,5.9c-1-0.7-2.1-1.1-3.4-1.1c-3.4,0-6.1,2.8-6.1,6.3
		c0,2.5,1.3,4.5,3.3,5.4c1.4-1.1,3-1.7,4.6-1.8C10.5,21.8,13.9,22.1,15.8,23.6z" />
</g>
    <g id="_x31_1Fog" display="none">
	<rect display="inline" fill="#385CE0" width="48" height="48" />
        <g id="_x37__1_" display="inline">
		<path fill="none" stroke="#FFFFFF" stroke-width="2" stroke-miterlimit="10" d="M46.7,27.3c0.6-4.4-1.7-9.3-8.1-8.7
			c-0.3-8.4-6-12-12-12c-7.1,0-10.3,7.6-10.8,9.3c-1.9-1.5-5.4-1.8-6.3-1.8c-3.7,0.2-7.4,3.2-8.2,8.6c-0.2,1.3-0.1,2.6,0.2,3.8" />
	</g>
        <rect x="12.8" y="25.8" display="inline" fill="#FFFFFF" width="22.8" height="2.9" />
        <rect x="9.9" y="38.5" display="inline" fill="#FFFFFF" width="22.8" height="2.9" />
        <rect x="2.6" y="32.1" display="inline" fill="#FFFFFF" width="43.8" height="2.9" />
</g>
    <g id="_x31_2Showers" display="none">
	<rect display="inline" fill="#385CE0" width="48" height="48" />
        <path display="inline" fill="none" stroke="#FFFFFF" stroke-width="2" stroke-miterlimit="10"
            d="M20,12.4
		c3.1,6.7-1.5,10.8-5.4,10.8S6,19.8,9.2,12.4c2.5-5.8,5.4-10.1,5.4-10.1S17.5,7,20,12.4z" />
        <path display="inline" fill="none" stroke="#FFFFFF" stroke-width="2" stroke-miterlimit="10"
            d="M39.1,32.6
		c3.9,8.6-1.9,13.8-7,13.8s-11-4.3-6.8-13.8c3.3-7.4,6.9-13,6.9-13S35.9,25.7,39.1,32.6z" />
</g>
    <g id="_x31_3Mostly_Cloudy_with_Showers" display="none">
	<rect display="inline" fill="#385CE0" width="48" height="48" />
        <rect x="18.2" y="0.5" display="inline" fill="#FFFFFF" width="2.4" height="7.2" />
        <rect x="1.8" y="19" display="inline" fill="#FFFFFF" width="7.4" height="2.3" />

        <rect x="30.4" y="4.9" transform="matrix(0.6456 0.7637 -0.7637 0.6456 17.7846 -21.0786)"
            display="inline" fill="#FFFFFF" width="2.3" height="7.4" />
        <polygon display="inline" fill="#FFFFFF"
            points="5.5,6.8 7.1,5.1 12.3,10.2 10.7,11.9 	" />
        <path display="inline" fill="none" stroke="#FFFFFF" stroke-width="2" stroke-miterlimit="10"
            d="M41,39.7
		c6.6,0.1,7.8-12.9-1.2-12.1c-0.7-5.6-5.7-7.4-9.6-7.4c-5,0-8.2,5.5-8.5,6.7c-1-0.8-4.2-1.3-5-1.3c-3,0.1-5.9,2.3-6.5,6.2
		c-0.6,3.9,2.4,8,6.5,8" />
        <path display="inline" fill="none" stroke="#FFFFFF" stroke-width="2" stroke-miterlimit="10"
            d="M16.1,25.8c0.2,0,0.4-0.1,0.6-0.1
		c0.7,0,4,0.5,5,1.3c0.4-1.2,3.5-6.7,8.5-6.7c0.1,0,0.1,0,0.2,0c0-0.1,0-0.1,0-0.2c0-4.4-3.8-8-8.4-8c-4.6,0-8.4,3.6-8.4,8
		C13.6,22.3,14.5,24.3,16.1,25.8z" />
        <path display="inline" fill="#FFFFFF" d="M26.7,41.9c1.6,3.5-0.8,5.6-2.8,5.6s-4.5-1.7-2.8-5.6c1.3-3,2.8-5.3,2.8-5.3
		S25.5,39.1,26.7,41.9z" />
        <path display="inline" fill="#FFFFFF" d="M34.2,37.2c1.6,3.5-0.8,5.6-2.8,5.6s-4.5-1.7-2.8-5.6c1.3-3,2.8-5.3,2.8-5.3
		S32.9,34.4,34.2,37.2z" />
</g>
    <g id="_x31_4Partly_Sunny_with_Showers" display="none">
	<rect display="inline" fill="#385CE0" width="48" height="48" />
        <rect x="23.3" y="1.7" display="inline" fill="#FFFFFF" width="2.1" height="7.8" />
        <rect x="38.7" y="23.5" display="inline" fill="#FFFFFF" width="8" height="2.1" />

        <rect x="9.9" y="6.9" transform="matrix(-0.6456 0.7637 -0.7637 -0.6456 25.8734 8.6135)"
            display="inline" fill="#FFFFFF" width="2.1" height="6.9" />

        <rect x="36.8" y="33.6" transform="matrix(-0.6456 0.7637 -0.7637 -0.6456 90.8211 32.3852)"
            display="inline" fill="#FFFFFF" width="2.1" height="7.3" />
        <polygon display="inline" fill="#FFFFFF"
            points="40.7,10.2 39.1,8.7 34.4,13.3 36,14.8 	" />
        <path display="inline" fill="none" stroke="#FFFFFF" stroke-width="2" stroke-miterlimit="10"
            d="M9.2,41c-11.7,1.3-9-12.7-1-10.7
		c0.6-4.7,4.5-6.2,7.6-6.2c4,0,6.5,4.6,6.8,5.6c0.4-0.4,1.8-1.3,4-1.1c2.4,0.3,4.9,2,5.2,5.2c0.6,6.2-5.6,6.9-8.9,6.9" />
        <path display="inline" fill="none" stroke="#FFFFFF" stroke-width="2" stroke-miterlimit="10"
            d="M30.6,28.1c-0.2,0-0.5,0-0.7-0.1
		c-2.2-0.6-6.1,0.5-7.2,1.3c-0.5-0.7-1.6-2.5-3.2-3.8c-1.7-1.4-4-2.1-4-2c0,0,0-0.9,0-1c0-4.8,3.6-9.1,8.6-9.1c5,0,9.1,3.9,9.1,8.6
		C33.3,24.3,32.3,26.5,30.6,28.1z" />
        <path display="inline" fill="#FFFFFF" d="M12.7,40.5c-1.7,3.6,0.8,5.8,2.9,5.8s4.6-1.8,2.9-5.8c-1.4-3.1-2.9-5.5-2.9-5.5
		S14.1,37.6,12.7,40.5z" />
</g>
    <g id="_x31_5Thunderstorms" display="none">
	<rect display="inline" fill="#385CE0" width="48" height="48" />
        <polygon display="inline" fill="none" stroke="#FFFFFF" stroke-width="2"
            stroke-miterlimit="10" points="18.8,1.4 31.8,1.4
		25.8,14.6 38.8,14.6 15.7,42.6 22,23.7 9.2,23.7 	" />
</g>
    <g id="_x31_6Mostly_Cloudy_with_Thunderstorms" display="none">
	<rect display="inline" fill="#385CE0" width="48" height="48" />
        <rect x="18.2" y="0.4" display="inline" fill="#FFFFFF" width="2.3" height="7.1" />
        <rect x="2.1" y="18.7" display="inline" fill="#FFFFFF" width="7.3" height="2.3" />

        <rect x="30.4" y="4.8" transform="matrix(0.6456 0.7637 -0.7637 0.6456 17.5884 -21.0825)"
            display="inline" fill="#FFFFFF" width="2.3" height="7.3" />
        <polygon display="inline" fill="#FFFFFF" points="5.7,6.6 7.3,5 12.5,10 10.8,11.6 	" />
        <path display="inline" fill="none" stroke="#FFFFFF" stroke-width="2" stroke-miterlimit="10"
            d="M40.8,39.1
		c6.5,0.1,7.7-12.8-1.2-12c-0.7-5.6-5.6-7.3-9.5-7.3c-4.9,0-8.1,5.4-8.4,6.6c-1-0.8-4.2-1.3-4.9-1.2c-2.9,0.1-5.8,2.3-6.4,6.1
		c-0.6,3.9,2.3,7.9,6.4,7.9" />
        <path display="inline" fill="none" stroke="#FFFFFF" stroke-width="2" stroke-miterlimit="10"
            d="M16.2,25.2c0.2,0,0.4,0,0.6-0.1
		c0.7,0,3.9,0.6,4.9,1.4c0.4-1.2,3.4-6.7,8.4-6.7c0.1,0,0.1,0,0.2,0c0-0.1,0-0.1,0-0.2c0-4.3-3.6-7.8-8.2-7.8
		c-4.6,0-8.3,3.5-8.3,7.9C13.7,22,14.7,23.8,16.2,25.2z" />
        <polygon display="inline" fill="#FFFFFF"
            points="26,27.8 31.3,27.8 28.9,34.1 34.2,34.1 24.8,47.6 27.3,38.5 22.1,38.5 	" />
</g>
    <g id="_x31_7Partly_Sunny_with_Thunderstorms" display="none">
	<rect display="inline" fill="#385CE0" width="48" height="48" />
        <rect x="23.4" y="0.4" display="inline" fill="#FFFFFF" width="2" height="7.2" />
        <rect x="37.5" y="20.4" display="inline" fill="#FFFFFF" width="7.3" height="1.9" />

        <rect x="11.1" y="5.2" transform="matrix(-0.6456 0.7637 -0.7637 -0.6456 26.1663 4.5151)"
            display="inline" fill="#FFFFFF" width="1.9" height="6.3" />

        <rect x="35.8" y="29.7" transform="matrix(-0.6456 0.7637 -0.7637 -0.6456 85.6571 26.2895)"
            display="inline" fill="#FFFFFF" width="1.9" height="6.7" />
        <polygon display="inline" fill="#FFFFFF"
            points="39.3,8.2 37.9,6.8 33.6,11.1 35,12.4 	" />
        <path display="inline" fill="none" stroke="#FFFFFF" stroke-width="2" stroke-miterlimit="10"
            d="M10.4,36.4
		c-10.8,1.2-8.2-11.6-0.9-9.8c0.5-4.3,4.1-5.7,7-5.7c3.6,0,6,4.2,6.2,5.1c0.4-0.3,1.7-1.2,3.6-1c2.2,0.3,4.4,1.8,4.7,4.7
		c0.5,5.7-5.1,6.3-8.1,6.3" />
        <path display="inline" fill="none" stroke="#FFFFFF" stroke-width="2" stroke-miterlimit="10"
            d="M30,24.6c-0.2,0-0.4,0-0.6-0.1
		c-2-0.5-5.6,0.4-6.6,1.2c-0.4-0.7-1.4-2.3-2.9-3.5c-1.6-1.3-3.6-2-3.7-1.9c0,0,0-0.9,0-0.9c0-4.4,3.3-8.4,7.9-8.4
		c4.6,0,8.4,3.5,8.4,7.9C32.5,21.2,31.6,23.2,30,24.6z" />
        <polygon display="inline" fill="#FFFFFF"
            points="14.5,31.4 18.8,31.4 16.8,36.6 21.1,36.6 13.5,47.6 15.6,40.2 11.3,40.2 	" />
</g>
    <g id="_x31_8Rain" display="none">
	<rect display="inline" fill="#385CE0" width="48" height="48" />
        <path display="inline" fill="none" stroke="#FFFFFF" stroke-width="2" stroke-miterlimit="10"
            d="M34,31.7c4,8.7-1.9,13.9-7.1,13.9
		S15.8,41.4,20,31.7c3.3-7.5,7-13.1,7-13.1S30.8,24.8,34,31.7z" />
        <path display="inline" fill="none" stroke="#FFFFFF" stroke-width="2" stroke-miterlimit="10"
            d="M14.7,13.4c2.8,6.1-1.4,9.8-5,9.8
		s-7.8-3-4.9-9.8c2.3-5.3,4.9-9.3,4.9-9.3S12.5,8.5,14.7,13.4z" />
        <path display="inline" fill="none" stroke="#FFFFFF" stroke-width="2" stroke-miterlimit="10"
            d="M43.4,9.4
		c2.1,4.7-1.1,7.5-3.8,7.5s-6-2.3-3.7-7.5c1.8-4.1,3.8-7.1,3.8-7.1S41.7,5.7,43.4,9.4z" />
</g>
    <g id="_x31_9Flurries" display="none">
	<rect display="inline" fill="#385CE0" width="48" height="48" />
        <polygon display="inline" fill="#FFFFFF" points="24,11.8 22.2,11.8 23.3,10.8 22.1,9.8 19.9,11.8 14,11.8 18.1,7.7 21.2,7.5
		21.3,5.9 19.8,6 21,4.7 20,3.7 18.7,4.9 18.8,3.4 17.2,3.5 17,6.6 12.9,10.7 12.9,4.8 14.9,2.6 13.9,1.4 12.9,2.5 12.9,0.7
		11.3,0.7 11.3,2.5 10.4,1.4 9.3,2.6 11.3,4.8 11.3,10.7 7.1,6.5 7,3.5 5.4,3.4 5.5,4.9 4.3,3.7 3.2,4.7 4.4,6 2.9,5.9 3,7.5
		6.1,7.6 10.3,11.8 4.3,11.8 2.1,9.8 0.9,10.8 2,11.8 0.2,11.8 0.2,13.4 2,13.4 0.9,14.3 2.1,15.4 4.3,13.4 10.3,13.4 6.1,17.6
		3,17.7 2.9,19.3 4.4,19.2 3.2,20.4 4.3,21.5 5.5,20.3 5.4,21.8 7,21.7 7.1,18.6 11.3,14.4 11.3,20.4 9.3,22.6 10.4,23.8 11.3,22.7
		11.3,24.5 12.9,24.5 12.9,22.7 13.9,23.8 14.9,22.6 12.9,20.4 12.9,14.4 17,18.6 17.2,21.7 18.8,21.7 18.7,20.3 20,21.5 21,20.4
		19.8,19.2 21.3,19.3 21.2,17.7 18.1,17.5 14,13.4 19.9,13.4 22.1,15.4 23.3,14.3 22.2,13.4 24,13.4 	" />
        <polygon display="inline" fill="#FFFFFF" points="47.8,32.7 45.8,32.7 47,31.6 45.6,30.4 43,32.7 36.2,32.7 41,27.9 44.6,27.8
		44.6,25.9 43,26 44.4,24.6 43.1,23.3 41.7,24.8 41.8,23.1 39.9,23.2 39.8,26.7 35,31.5 35,24.7 37.4,22.1 36.1,20.7 35,22 35,20
		33.2,20 33.2,22 32.1,20.7 30.8,22.1 33.2,24.7 33.2,31.5 28.4,26.7 28.3,23.2 26.4,23.1 26.5,24.7 25.1,23.3 23.8,24.6 25.2,26
		23.6,25.9 23.6,27.8 27.1,27.9 32,32.7 25.1,32.7 22.6,30.4 21.2,31.6 22.4,32.7 20.5,32.7 20.5,34.5 22.4,34.5 21.2,35.6
		22.6,36.9 25.1,34.5 32,34.5 27.1,39.3 23.6,39.5 23.6,41.3 25.2,41.2 23.8,42.7 25.1,43.9 26.5,42.5 26.4,44.2 28.2,44.1
		28.4,40.6 33.2,35.8 33.2,42.6 30.8,45.2 32.1,46.5 33.2,45.3 33.2,47.3 35,47.3 35,45.3 36.1,46.5 37.4,45.2 35,42.6 35,35.8
		39.8,40.6 39.9,44.1 41.8,44.2 41.7,42.5 43.1,43.9 44.4,42.7 43,41.2 44.6,41.3 44.6,39.5 41,39.3 36.2,34.5 43,34.5 45.6,36.9
		47,35.6 45.8,34.5 47.8,34.5 	" />
</g>
    <g id="_x32_0Mostly_Cloudy_with_Flurries" display="none">
	<rect display="inline" fill="#385CE0" width="48" height="48" />
        <rect x="18" y="1.1" display="inline" fill="#FFFFFF" width="2.4" height="7.4" />
        <rect x="1.1" y="20.2" display="inline" fill="#FFFFFF" width="7.6" height="2.4" />

        <rect x="30.6" y="5.7" transform="matrix(0.6456 0.7637 -0.7637 0.6456 18.5594 -20.9369)"
            display="inline" fill="#FFFFFF" width="2.4" height="7.6" />
        <polygon display="inline" fill="#FFFFFF" points="4.9,7.6 6.6,5.9 12,11.2 10.2,12.9 	" />
        <path display="inline" fill="none" stroke="#FFFFFF" stroke-width="2" stroke-miterlimit="10"
            d="M41.5,41.6
		c6.8,0.1,8-13.3-1.2-12.5c-0.7-5.8-5.9-7.7-9.9-7.6c-5.1,0-8.4,5.6-8.8,6.9c-1-0.8-4.4-1.3-5.1-1.3c-3,0.1-6.1,2.4-6.7,6.3
		c-0.6,4.1,2.4,8.2,6.7,8.2" />
        <path display="inline" fill="none" stroke="#FFFFFF" stroke-width="2" stroke-miterlimit="10"
            d="M15.8,27.2c0.2,0,0.4-0.1,0.7-0.1
		c0.7,0,4.1,0.5,5.1,1.3c0.4-1.3,3.7-6.9,8.8-6.9c0.1,0,0.1,0,0.2,0c0-0.1,0-0.1,0-0.2c0-4.5-3.9-8.2-8.6-8.2
		c-4.8,0-8.6,3.7-8.6,8.2C13.3,23.7,14.2,25.7,15.8,27.2z" />
        <polygon display="inline" fill="#FFFFFF" points="33.5,41.2 32.7,41.2 33.2,40.8 32.6,40.3 31.6,41.2 29,41.2 30.9,39.4 32.2,39.3
		32.3,38.6 31.6,38.6 32.2,38.1 31.7,37.6 31.1,38.1 31.1,37.5 30.4,37.5 30.4,38.9 28.5,40.7 28.5,38.1 29.4,37.1 28.9,36.6
		28.5,37 28.5,36.3 27.8,36.3 27.8,37 27.4,36.6 26.9,37.1 27.8,38.1 27.8,40.7 26,38.9 25.9,37.5 25.2,37.5 25.2,38.1 24.7,37.6
		24.2,38.1 24.7,38.6 24.1,38.6 24.1,39.3 25.5,39.3 27.3,41.2 24.7,41.2 23.7,40.3 23.2,40.8 23.6,41.2 22.9,41.2 22.9,41.9
		23.6,41.9 23.2,42.3 23.7,42.8 24.7,41.9 27.3,41.9 25.5,43.8 24.1,43.8 24.1,44.5 24.7,44.5 24.2,45.1 24.7,45.5 25.2,45
		25.2,45.6 25.9,45.6 26,44.3 27.8,42.4 27.8,45 26.9,46 27.4,46.6 27.8,46.1 27.8,46.9 28.5,46.9 28.5,46.1 28.9,46.6 29.4,46
		28.5,45 28.5,42.4 30.4,44.2 30.4,45.6 31.1,45.6 31.1,45 31.7,45.5 32.2,45.1 31.6,44.5 32.3,44.5 32.2,43.8 30.9,43.8 29,41.9
		31.6,41.9 32.6,42.8 33.2,42.3 32.7,41.9 33.5,41.9 	" />
</g>
    <g id="_x32_1Partly_Sunny_with_Flurries" display="none">
	<rect display="inline" fill="#385CE0" width="48" height="48" />
        <rect x="23.3" y="0.9" display="inline" fill="#FFFFFF" width="2.1" height="7.8" />
        <rect x="38.7" y="22.7" display="inline" fill="#FFFFFF" width="8" height="2.1" />

        <rect x="9.9" y="6.1" transform="matrix(-0.6456 0.7637 -0.7637 -0.6456 25.3349 7.3995)"
            display="inline" fill="#FFFFFF" width="2.1" height="6.9" />

        <rect x="36.8" y="32.9" transform="matrix(-0.6456 0.7637 -0.7637 -0.6456 90.2206 31.1485)"
            display="inline" fill="#FFFFFF" width="2.1" height="7.3" />
        <polygon display="inline" fill="#FFFFFF"
            points="40.6,9.4 39.1,7.9 34.4,12.5 35.9,14 	" />
        <path display="inline" fill="none" stroke="#FFFFFF" stroke-width="2" stroke-miterlimit="10"
            d="M9.2,40.2
		c-11.7,1.3-9-12.6-1-10.7c0.6-4.7,4.5-6.2,7.6-6.2c4,0,6.5,4.6,6.8,5.6c0.4-0.4,1.8-1.3,3.9-1.1c2.4,0.3,4.9,2,5.2,5.2
		c0.6,6.2-5.6,6.9-8.9,6.9" />
        <path display="inline" fill="none" stroke="#FFFFFF" stroke-width="2" stroke-miterlimit="10"
            d="M30.6,27.3c-0.2,0-0.5,0-0.7-0.1
		c-2.2-0.6-6.1,0.5-7.2,1.3c-0.5-0.7-1.6-2.5-3.2-3.8c-1.7-1.4-3.9-2.1-4-2c0,0,0-0.9,0-1c0-4.8,3.6-9.1,8.6-9.1
		c5,0,9.1,3.9,9.1,8.6C33.3,23.6,32.2,25.8,30.6,27.3z" />
        <polygon display="inline" fill="#FFFFFF" points="20,43 19.5,43 19.8,42.7 19.4,42.3 18.7,43 16.8,43 18.1,41.7 19.1,41.6
		19.2,41.1 18.7,41.1 19.1,40.7 18.7,40.4 18.3,40.8 18.4,40.3 17.8,40.3 17.8,41.3 16.5,42.7 16.5,40.8 17.1,40 16.8,39.7 16.5,40
		16.5,39.5 16,39.5 16,40 15.7,39.7 15.3,40 16,40.8 16,42.7 14.6,41.3 14.6,40.3 14.1,40.3 14.1,40.8 13.7,40.4 13.4,40.7
		13.7,41.1 13.3,41.1 13.3,41.6 14.3,41.7 15.6,43 13.7,43 13,42.3 12.6,42.7 13,43 12.4,43 12.4,43.5 13,43.5 12.6,43.8 13,44.2
		13.7,43.5 15.6,43.5 14.3,44.8 13.3,44.9 13.3,45.4 13.7,45.4 13.4,45.8 13.7,46.1 14.1,45.7 14.1,46.2 14.6,46.2 14.6,45.2
		16,43.8 16,45.8 15.3,46.5 15.7,46.8 16,46.5 16,47.1 16.5,47.1 16.5,46.5 16.8,46.8 17.1,46.5 16.5,45.8 16.5,43.8 17.8,45.2
		17.8,46.2 18.4,46.2 18.3,45.7 18.7,46.1 19.1,45.8 18.7,45.4 19.2,45.4 19.1,44.9 18.1,44.8 16.8,43.5 18.7,43.5 19.4,44.2
		19.8,43.8 19.5,43.5 20,43.5 	" />
</g>
    <g id="_x32_2Snow" display="none">
	<rect display="inline" fill="#385CE0" width="48" height="48" />
        <polygon display="inline" fill="#FFFFFF" points="42.3,6 41.5,6 42,5.5 41.4,5 40.3,6 37.5,6 39.5,4 41,3.9 41,3.1 40.3,3.1
		40.9,2.5 40.4,2 39.8,2.6 39.8,1.9 39,1.9 39,3.4 36.9,5.5 36.9,2.6 37.9,1.5 37.4,0.9 36.9,1.4 36.9,0.6 36.2,0.6 36.2,1.4
		35.7,0.9 35.2,1.5 36.2,2.6 36.2,5.5 34.1,3.4 34.1,1.9 33.3,1.9 33.3,2.6 32.7,2 32.2,2.6 32.8,3.1 32.1,3.1 32.1,3.9 33.6,4
		35.7,6 32.8,6 31.7,5 31.1,5.5 31.6,6 30.8,6 30.8,6.7 31.6,6.7 31.1,7.2 31.7,7.8 32.8,6.7 35.7,6.7 33.6,8.8 32.1,8.9 32.1,9.6
		32.8,9.6 32.2,10.2 32.7,10.7 33.3,10.1 33.3,10.8 34.1,10.8 34.1,9.3 36.2,7.3 36.2,10.2 35.2,11.3 35.7,11.8 36.2,11.3
		36.2,12.2 36.9,12.2 36.9,11.3 37.4,11.8 37.9,11.3 36.9,10.2 36.9,7.3 39,9.3 39,10.8 39.8,10.8 39.8,10.1 40.4,10.7 40.9,10.2
		40.3,9.6 41,9.6 41,8.8 39.5,8.8 37.5,6.7 40.3,6.7 41.4,7.8 42,7.2 41.5,6.7 42.3,6.7 	" />
        <polygon display="inline" fill="#FFFFFF" points="24.7,11.5 22.9,11.5 24,10.6 22.8,9.5 20.6,11.5 14.8,11.5 18.9,7.4 21.9,7.3
		22,5.7 20.6,5.8 21.8,4.5 20.7,3.5 19.5,4.7 19.6,3.3 18,3.3 17.8,6.3 13.7,10.5 13.7,4.6 15.8,2.4 14.7,1.2 13.7,2.3 13.7,0.6
		12.2,0.6 12.2,2.3 11.2,1.2 10.2,2.4 12.2,4.6 12.2,10.5 8.1,6.3 8,3.3 6.4,3.3 6.4,4.7 5.2,3.5 4.2,4.6 5.4,5.8 3.9,5.7 4,7.3
		7,7.4 11.2,11.5 5.3,11.5 3.1,9.5 1.9,10.6 3,11.5 1.3,11.5 1.3,13 3,13 1.9,14 3.1,15.1 5.3,13 11.1,13 7,17.2 4,17.3 3.9,18.9
		5.4,18.8 4.2,20 5.2,21.1 6.4,19.9 6.4,21.3 8,21.2 8.1,18.2 12.2,14.1 12.2,20 10.2,22.2 11.2,23.3 12.2,22.3 12.2,24 13.7,24
		13.7,22.3 14.7,23.3 15.8,22.2 13.7,20 13.7,14.1 17.8,18.2 18,21.2 19.6,21.3 19.5,19.9 20.7,21.1 21.8,20 20.6,18.8 22,18.9
		21.9,17.3 18.9,17.1 14.8,13 20.6,13 22.8,15.1 24,14 22.9,13 24.7,13 	" />
        <polygon display="inline" fill="#FFFFFF" points="46.7,33.1 44.7,33.1 46,32 44.6,30.7 42,33.1 35.4,33.1 40.1,28.4 43.6,28.2
		43.6,26.4 42,26.5 43.4,25.1 42.2,23.8 40.8,25.2 40.8,23.6 39,23.7 38.9,27.1 34.1,31.9 34.1,25.2 36.5,22.6 35.3,21.3 34.1,22.5
		34.1,20.5 32.4,20.5 32.4,22.5 31.3,21.3 30.1,22.6 32.4,25.2 32.4,31.9 27.6,27.1 27.5,23.7 25.7,23.6 25.8,25.2 24.4,23.8
		23.1,25.1 24.5,26.4 22.9,26.4 23,28.2 26.4,28.3 31.2,33.1 24.4,33.1 21.9,30.7 20.6,32 21.8,33.1 19.8,33.1 19.8,34.8 21.8,34.8
		20.6,35.9 21.9,37.2 24.4,34.8 31.2,34.8 26.4,39.6 23,39.7 22.9,41.5 24.5,41.5 23.1,42.9 24.4,44.1 25.8,42.7 25.7,44.3
		27.5,44.3 27.6,40.8 32.4,36.1 32.4,42.8 30.1,45.3 31.3,46.7 32.4,45.5 32.4,47.4 34.1,47.4 34.1,45.5 35.2,46.7 36.5,45.3
		34.1,42.8 34.1,36.1 38.9,40.8 39,44.3 40.8,44.3 40.8,42.7 42.2,44.1 43.4,42.9 42,41.5 43.6,41.5 43.6,39.7 40.1,39.6 35.4,34.8
		42,34.8 44.6,37.2 46,35.9 44.7,34.8 46.7,34.8 	" />
</g>
    <g id="_x32_3Mostly_Cloudy_with_Snow" display="none">
	<rect display="inline" fill="#385CE0" width="48" height="48" />
        <rect x="18.2" y="0.4" display="inline" fill="#FFFFFF" width="2.4" height="7.2" />
        <rect x="1.9" y="18.8" display="inline" fill="#FFFFFF" width="7.3" height="2.3" />

        <rect x="30.4" y="4.8" transform="matrix(0.6456 0.7637 -0.7637 0.6456 17.6387 -21.1006)"
            display="inline" fill="#FFFFFF" width="2.3" height="7.3" />
        <polygon display="inline" fill="#FFFFFF" points="5.6,6.6 7.2,5 12.4,10.1 10.7,11.7 	" />
        <path display="inline" fill="none" stroke="#FFFFFF" stroke-width="2" stroke-miterlimit="10"
            d="M40.9,39.3
		c6.5,0.1,7.8-12.8-1.2-12c-0.7-5.6-5.6-7.4-9.5-7.4c-5,0-8.1,5.4-8.5,6.6c-1-0.8-4.2-1.3-4.9-1.3c-2.9,0.1-5.8,2.3-6.4,6.1
		c-0.6,3.9,2.4,7.9,6.4,7.9" />
        <polygon display="inline" fill="#FFFFFF" points="27.7,42.5 27,42.5 27.5,42.1 27,41.7 26.1,42.5 23.7,42.5 25.4,40.8 26.6,40.8
		26.7,40.1 26.1,40.2 26.6,39.7 26.1,39.2 25.6,39.7 25.7,39.1 25,39.2 24.9,40.4 23.3,42.1 23.3,39.7 24.1,38.8 23.7,38.3
		23.3,38.7 23.3,38 22.6,38 22.6,38.7 22.2,38.3 21.8,38.8 22.6,39.7 22.6,42.1 20.9,40.4 20.9,39.2 20.3,39.1 20.3,39.7 19.8,39.2
		19.3,39.7 19.8,40.2 19.3,40.1 19.3,40.8 20.5,40.8 22.2,42.5 19.8,42.5 18.9,41.7 18.4,42.1 18.9,42.5 18.2,42.5 18.2,43.1
		18.9,43.1 18.4,43.5 18.9,44 19.8,43.1 22.2,43.1 20.5,44.8 19.3,44.9 19.3,45.5 19.8,45.5 19.3,46 19.8,46.4 20.3,45.9 20.3,46.5
		20.9,46.5 20.9,45.3 22.6,43.6 22.6,46 21.8,46.9 22.2,47.4 22.6,46.9 22.6,47.6 23.3,47.6 23.3,46.9 23.7,47.4 24.1,46.9 23.3,46
		23.3,43.6 24.9,45.3 25,46.5 25.7,46.5 25.6,45.9 26.1,46.4 26.6,46 26.1,45.5 26.7,45.5 26.6,44.9 25.4,44.8 23.7,43.1 26.1,43.1
		27,44 27.5,43.5 27,43.1 27.7,43.1 	" />
        <path display="inline" fill="none" stroke="#FFFFFF" stroke-width="2" stroke-miterlimit="10"
            d="M16,25.4c0.2,0,0.4-0.1,0.6-0.1
		c0.7,0,4,0.6,5,1.4c0.4-1.2,3.5-6.7,8.5-6.8c0.1,0,0.1,0,0.2,0c0-0.1,0-0.1,0-0.2c0-4.4-3.7-7.8-8.3-7.8c-4.6,0-8.3,3.5-8.3,7.9
		C13.6,22.1,14.5,23.9,16,25.4z" />
        <polygon display="inline" fill="#FFFFFF" points="38.2,37.7 37.5,37.7 37.9,37.3 37.4,36.9 36.5,37.7 34.1,37.7 35.8,36 37,36
		37.1,35.3 36.5,35.4 37,34.9 36.5,34.4 36,34.9 36.1,34.3 35.4,34.4 35.4,35.6 33.7,37.3 33.7,34.9 34.5,34 34.1,33.5 33.7,34
		33.7,33.2 33.1,33.2 33.1,34 32.7,33.5 32.2,34 33.1,34.9 33.1,37.3 31.4,35.6 31.3,34.4 30.7,34.3 30.7,34.9 30.2,34.4 29.8,34.9
		30.3,35.4 29.7,35.3 29.7,36 30.9,36 32.6,37.7 30.2,37.7 29.3,36.9 28.8,37.3 29.3,37.7 28.6,37.7 28.6,38.3 29.3,38.3 28.8,38.7
		29.3,39.2 30.2,38.3 32.6,38.3 30.9,40 29.7,40.1 29.7,40.7 30.3,40.7 29.8,41.2 30.2,41.6 30.7,41.2 30.7,41.7 31.3,41.7
		31.4,40.5 33.1,38.8 33.1,41.2 32.2,42.1 32.7,42.6 33.1,42.1 33.1,42.8 33.7,42.8 33.7,42.1 34.1,42.6 34.5,42.1 33.7,41.2
		33.7,38.8 35.4,40.5 35.4,41.7 36.1,41.7 36,41.1 36.5,41.6 37,41.2 36.5,40.7 37.1,40.7 37,40.1 35.8,40 34.1,38.3 36.5,38.3
		37.4,39.2 37.9,38.7 37.5,38.3 38.2,38.3 	" />
</g>
    <g id="_x32_4Ice" display="none">
	<rect display="inline" fill="#385CE0" width="48" height="48" />
        <polygon display="inline" fill="none" stroke="#FFFFFF" stroke-width="2"
            stroke-miterlimit="10" points="8.9,11 14.7,2.3
		20.2,11.5 14.6,20.3 	" />
        <polygon display="inline" fill="none" stroke="#FFFFFF" stroke-width="2"
            stroke-miterlimit="10" points="23,32.1 31.1,18.6
		39.1,32.1 31,45.7 	" />
</g>
    <g id="_x32_5Sleet" display="none">
	<rect display="inline" fill="#385CE0" width="48" height="48" />
        <path display="inline" fill="#FFFFFF" d="M47,32.9l-1.1-2.2l0.7-2.4L45,26.6l0-2.4l-3-1.7l-1.5-3.1l-2.5-0.2l-1.7-1.8l-2.3,0.6
		L31.8,17l-2.9,1.8l-3.4-0.2l-1.4,2.1l-2.4,0.6l-0.7,2.3l-2,1.2l0.1,3.4L17.2,31l1.1,2.2l-0.7,2.4l1.7,1.7l0,2.4l3,1.7l1.5,3.1
		l2.5,0.2l1.7,1.8l2.3-0.6l2.1,1.2l2.9-1.8l3.4,0.2l1.4-2.1l2.4-0.6l0.7-2.3l2-1.2l-0.1-3.4L47,32.9z M42.8,35.1l0.1,2.8l-1.7,1
		l-0.5,1.9l-2,0.5l-1.1,1.7l-2.8-0.2l-2.4,1.4l-1.7-0.9l-1.9,0.5l-1.4-1.5l-2-0.1l-1.2-2.5l-2.5-1.4l0-2l-1.4-1.4l0.6-1.9l-0.9-1.8
		l1.6-2.3L21.4,26l1.7-1l0.5-1.9l2-0.5l1.1-1.7l2.8,0.2l2.4-1.4l1.7,0.9l1.9-0.5l1.4,1.5l2,0.1l1.2,2.5l2.5,1.4l0,2L44,29l-0.6,1.9
		l0.9,1.8L42.8,35.1z" />
        <path display="inline" fill="#FFFFFF" d="M21.5,12l-0.8-1.5l0.5-1.6l-1.1-1.2l0-1.6L18,4.9l-1-2.1l-1.7-0.1l-1.2-1.2l-1.6,0.4
		L11,1.1L9,2.3L6.7,2.2L5.7,3.6L4.1,4L3.6,5.6L2.2,6.4l0,2.4l-1.3,2l0.8,1.5l-0.5,1.6L2.4,15l0,1.6l2.1,1.1l1,2.1L7.2,20l1.2,1.2
		l1.6-0.4l1.4,0.8l2-1.2l2.3,0.2l0.9-1.4l1.6-0.4l0.5-1.6l1.4-0.8l0-2.4L21.5,12z M17.8,13.3l0,1.7l-1,0.6l-0.3,1.2l-1.2,0.3l-0.7,1
		L12.9,18l-1.5,0.9l-1.1-0.6l-1.2,0.3l-0.9-0.9L7,17.7l-0.8-1.6l-1.5-0.8l0-1.2l-0.8-0.9L4.2,12l-0.6-1.1l1-1.4l0-1.7l1-0.6L6,5.9
		l1.2-0.3l0.7-1l1.7,0.1l1.5-0.9l1.1,0.6l1.2-0.3L14.2,5l1.2,0.1l0.8,1.6l1.5,0.8l0,1.2l0.8,0.9l-0.3,1.2l0.6,1.1L17.8,13.3z" />
</g>
    <g id="_x32_6Freezing_Rain" display="none">
	<rect display="inline" fill="#385CE0" width="48" height="48" />
        <path display="inline" fill="none" stroke="#FFFFFF" stroke-width="2" stroke-miterlimit="10"
            d="M37.8,31.4
		c4.1,9.1-2,14.6-7.4,14.6s-11.6-4.5-7.2-14.6c3.4-7.9,7.3-13.8,7.3-13.8S34.5,24.2,37.8,31.4z" />
        <polygon display="inline" fill="none" stroke="#FFFFFF" stroke-width="2"
            stroke-miterlimit="10" points="8.8,11.9 14.9,2.4
		20.9,11.9 14.9,21.5 	" />
</g>
    <g id="_x32_9Rain_and_Snow" display="none">
	<rect display="inline" fill="#385CE0" width="48" height="48" />
        <polygon display="inline" fill="#FFFFFF" points="44.1,32.7 42.1,32.7 43.3,31.6 42,30.3 39.4,32.7 32.6,32.7 37.4,27.9 40.9,27.8
		41,25.9 39.3,26 40.7,24.6 39.5,23.3 38.1,24.8 38.2,23.1 36.3,23.2 36.2,26.7 31.4,31.5 31.4,24.7 33.7,22.1 32.5,20.7 31.4,22
		31.4,20 29.6,20 29.6,22 28.5,20.7 27.2,22.1 29.6,24.7 29.6,31.5 24.8,26.6 24.7,23.2 22.8,23.1 22.9,24.7 21.5,23.3 20.2,24.6
		21.6,26 20,25.9 20.1,27.8 23.5,27.9 28.4,32.7 21.5,32.7 19,30.3 17.6,31.6 18.8,32.7 16.9,32.7 16.9,34.5 18.8,34.5 17.6,35.6
		19,36.8 21.5,34.5 28.4,34.5 23.5,39.3 20,39.4 20,41.3 21.6,41.2 20.2,42.6 21.5,43.8 22.9,42.4 22.8,44.1 24.6,44 24.8,40.5
		29.6,35.7 29.6,42.5 27.2,45.1 28.5,46.5 29.6,45.2 29.6,47.2 31.4,47.2 31.4,45.2 32.5,46.5 33.7,45.1 31.4,42.5 31.4,35.7
		36.2,40.5 36.3,44 38.2,44.1 38.1,42.4 39.5,43.8 40.7,42.6 39.3,41.2 41,41.3 40.9,39.4 37.4,39.3 32.6,34.5 39.4,34.5 42,36.8
		43.3,35.6 42.1,34.5 44.1,34.5 	" />
        <path display="inline" fill="none" stroke="#FFFFFF" stroke-width="2" stroke-miterlimit="10"
            d="M14.9,12c2.8,6.2-1.4,10-5.1,10
		s-8-3.1-4.9-10c2.3-5.4,5-9.4,5-9.4S12.6,7,14.9,12z" />
</g>
    <g id="_x33_0Hot" display="none">
	<rect display="inline" fill="#385CE0" width="48" height="48" />
        <path display="inline" fill="#FFFFFF" d="M25.5,35.2V7.4c0-0.8-0.7-1.5-1.5-1.5s-1.5,0.7-1.5,1.5v27.9c-1.3,0.6-2.3,1.8-2.3,3.3
		c0,2,1.7,3.6,3.8,3.6s3.8-1.6,3.8-3.6C27.8,37.1,26.8,35.8,25.5,35.2z" />
        <path display="inline" fill="#FFFFFF" d="M30.1,32.1V6.5c0-3.2-2.7-5.8-6.1-5.8s-6.1,2.6-6.1,5.8v25.6c-2,1.7-3.1,4-3.1,6.5
		c0,4.8,4.1,8.7,9.2,8.7s9.2-3.9,9.2-8.7C33.2,36.1,32.1,33.7,30.1,32.1z M24,44.4c-3.4,0-6.1-2.6-6.1-5.8c0-1.9,0.9-3.6,2.4-4.7
		c0.4-0.3,0.6-0.7,0.6-1.2V6.5c0-1.6,1.4-2.9,3.1-2.9s3.1,1.3,3.1,2.9v26.2c0,0.5,0.2,0.9,0.6,1.2c1.6,1.1,2.4,2.8,2.4,4.7
		C30.1,41.8,27.4,44.4,24,44.4z" />
</g>
    <g id="_x33_1Cold" display="none">
	<rect display="inline" fill="#385CE0" width="48" height="48" />
        <path display="inline" fill="#FFFFFF" d="M25.5,35.3v-7.4c0-0.8-0.7-1.5-1.5-1.5c-0.8,0-1.5,0.7-1.5,1.5v7.4
		c-1.3,0.6-2.3,1.9-2.3,3.4c0,2,1.7,3.7,3.8,3.7s3.8-1.6,3.8-3.7C27.8,37.1,26.8,35.8,25.5,35.3z" />
        <path display="inline" fill="#FFFFFF" d="M30.1,32.1V6.4c0-3.2-2.8-5.9-6.1-5.9s-6.1,2.6-6.1,5.9v25.6c-2,1.7-3.1,4-3.1,6.5
		c0,4.8,4.1,8.8,9.2,8.8s9.2-3.9,9.2-8.8C33.2,36.1,32.1,33.8,30.1,32.1z M24,44.5c-3.4,0-6.1-2.6-6.1-5.9c0-1.9,0.9-3.6,2.5-4.7
		c0.4-0.3,0.6-0.7,0.6-1.2V6.4c0-1.6,1.4-2.9,3.1-2.9s3.1,1.3,3.1,2.9v26.3c0,0.5,0.2,0.9,0.6,1.2c1.6,1.1,2.5,2.8,2.5,4.7
		C30.1,41.9,27.4,44.5,24,44.5z" />
</g>
    <g id="_x33_2Windy" display="none">
	<rect display="inline" fill="#385CE0" width="48" height="48" />
        <path display="inline" fill="#FFFFFF" d="M42.1,21.5c-3,0-5.4,2.4-5.4,5.4h2.8c0-1.5,1.2-2.7,2.7-2.7c1.5,0,2.7,1.2,2.7,2.7
		c0,1.7-1.4,3.1-3.1,3.1L0.6,30v2.8l32.4,0c1.6,0.1,2.8,1.5,2.8,3.1c0,1.5-1.2,2.7-2.7,2.7s-2.7-1.2-2.7-2.7h-2.8
		c0,3,2.4,5.4,5.4,5.4c3,0,5.4-2.4,5.4-5.4c0-1.1-0.3-2.2-0.9-3.1h4c3.2,0,5.9-2.6,5.9-5.9C47.5,23.9,45.1,21.5,42.1,21.5L42.1,21.5
		z" />
        <path display="inline" fill="#FFFFFF" d="M29.7,23.4c0.3-0.1,0.6-0.3,1-0.4c0.1,0,0.1-0.1,0.2-0.1c2.6-1.5,4.4-4.3,4.4-7.5
		c0-4.8-3.9-8.6-8.6-8.6c-4.7,0-8.4,3.7-8.6,8.3H21c0.2-3,2.6-5.4,5.7-5.4c3.2,0,5.7,2.6,5.7,5.7S29.8,21,26.7,21
		c-0.7,0-6.4,0-6.4,0c0,0,0,0,0,0L0.5,21v2.9h26.4c0.5,0,1-0.1,1.5-0.2c0,0,0.1,0,0.1,0C28.9,23.6,29.3,23.5,29.7,23.4z" />
</g>
    <g id="_x33_3Clear" display="none">
	<rect display="inline" fill="#385CE0" width="48" height="48" />
        <path display="inline" fill="#FFFFFF" stroke="#FFFFFF" stroke-width="1.5"
            stroke-miterlimit="10" d="M43.8,33.5
		c-2.8,1-5.8,1.4-8.8,1.2C23.4,33.8,14.7,23.6,15.6,12c0.2-3,1.1-5.9,2.5-8.5l0.9-1.7l-1.8,0.7C8.9,5.4,3.1,13.1,2.4,21.9
		c-1,12.4,8.3,23.3,20.8,24.3c8.9,0.7,17.3-3.9,21.5-11.7l0.9-1.7L43.8,33.5z M33.9,42.8c-10.6,4.9-23.1,0.4-28.1-10.2
		S5.4,9.5,16,4.5c-1,2.3-1.6,4.8-1.8,7.3c-0.9,12.4,8.4,23.3,20.8,24.2c2.5,0.2,5.1,0,7.5-0.7C40.3,38.6,37.4,41.2,33.9,42.8z" />
</g>
    <g id="_x33_4Mostly_Clear" display="none">
	<rect display="inline" fill="#385CE0" width="48" height="48" />
        <path display="inline" fill="none" stroke="#FFFFFF" stroke-width="2" stroke-miterlimit="10"
            d="M42.5,13.2c-0.5,0-1,0.1-1.5,0.3
		c-0.8-2.4-2.9-4.1-5.4-4.1c-2.6,0-4.8,1.8-5.5,4.3c-0.7-0.5-1.6-0.8-2.5-0.8c-2.4,0-4.4,2.1-4.4,4.6s2,4.4,4.4,4.4h15.9
		c1.8-0.5,3.2-2.2,3.2-4.3C46.7,15.2,44.8,13.2,42.5,13.2z" />
        <path display="inline" fill="#FFFFFF" stroke="#FFFFFF" stroke-width="1.5"
            stroke-miterlimit="10" d="M43.2,33.5
		c-2.8,1-5.9,1.5-8.9,1.2c-11.7-0.9-20.5-11.2-19.6-22.9c0.2-3,1.1-6,2.6-8.6l0.9-1.7l-1.8,0.7C7.9,5.3,2,13,1.3,21.9
		c-1,12.6,8.4,23.5,21,24.5c8.9,0.7,17.4-3.9,21.8-11.8l0.9-1.7L43.2,33.5z M33.1,43C22.4,48,9.7,43.4,4.7,32.7S4.4,9.3,15,4.3
		c-1,2.4-1.7,4.9-1.9,7.4c-0.9,12.6,8.4,23.5,21,24.5c2.6,0.2,5.1,0,7.6-0.7C39.6,38.8,36.6,41.3,33.1,43z" />
</g>
    <g id="_x33_5Partly_Cloudy" display="none">
	<rect display="inline" fill="#385CE0" width="48" height="48" />
        <path display="inline" fill="none" stroke="#FFFFFF" stroke-width="2" stroke-miterlimit="10"
            d="M41.8,27.5
		c-0.6,0-1.1,0.1-1.6,0.3c-0.8-2.6-3.1-4.4-5.9-4.4c-2.8,0-5.2,2-5.9,4.6c-0.8-0.5-1.7-0.9-2.7-0.9c-2.6,0-4.8,2.2-4.8,5
		s2.1,4.8,4.8,4.8h17.2c2-0.5,3.5-2.4,3.5-4.7C46.4,29.7,44.4,27.5,41.8,27.5z" />
        <path display="inline" fill="#FFFFFF" stroke="#FFFFFF" stroke-miterlimit="10" d="M40.1,38.3c-1.7,1.6-4.3,3.9-6.4,4.9
		c-10.8,5-23.6,0.4-28.7-10.4C0,22,4.7,9.2,15.5,4.1c-1,2.4-1.7,4.9-1.9,7.5C13,19.1,16.2,26,21.4,30.7v-2
		c-4.3-4.3-6.8-10.4-6.3-16.9c0.2-3.1,1.1-6,2.6-8.7l1-1.7L16.8,2C8.3,5.1,2.3,12.8,1.6,21.9c-1,12.7,8.5,23.8,21.2,24.8
		c7.1,0.5,14.7-3.2,19.4-8.3H40.1z" />
</g>
    <g id="_x33_6Intermittent_Clouds" display="none">
	<rect display="inline" fill="#385CE0" width="48" height="48" />
        <path display="inline" fill="none" stroke="#FFFFFF" stroke-width="2" stroke-miterlimit="10"
            d="M20.8,35.5c-0.5,0-1,0.1-1.5,0.3
		c-0.8-2.4-2.9-4.1-5.4-4.1c-2.6,0-4.7,1.8-5.4,4.3c-0.7-0.5-1.5-0.8-2.5-0.8c-2.4,0-4.4,2.1-4.4,4.6s2,4.4,4.4,4.4h15.7
		c1.8-0.5,3.2-2.2,3.2-4.3C25,37.5,23.1,35.5,20.8,35.5z" />
        <path display="inline" fill="none" stroke="#FFFFFF" stroke-width="2" stroke-miterlimit="10"
            d="M41.6,7.4c-0.4,0-0.9,0.1-1.3,0.3
		c-0.7-2.4-2.5-4.1-4.7-4.1c-2.2,0-4,1.3-4.6,3.8c-0.6-0.3-1.4-0.3-2.2-0.3c-2.1,0-3.8,2.1-3.8,4.6s1.7,4.4,3.8,4.4h13.7
		c1.6-0.5,2.8-2.2,2.8-4.3C45.3,9.4,43.6,7.4,41.6,7.4z" />
        <path display="inline" fill="#FFFFFF" stroke="#FFFFFF" stroke-miterlimit="10" d="M44.5,33.1c-2.7,1-5.6,1.4-8.5,1.2
		c-11.2-0.9-19.6-10.7-18.8-21.9c0.2-2.9,1-5.7,2.4-8.2l0.9-1.6l-1.8,0.6C10.8,6.1,5.2,13.4,4.5,22c-0.4,4.6,0.8,9,3,12.7L8.6,34
		c-0.5-0.8-0.5-0.8-0.9-1.7C3,22.1,7.4,10,17.6,5.2c-1,2.2-1.6,4.6-1.8,7.1c-0.9,12,8.1,22.5,20.1,23.4c2.4,0.2,4.9,0,7.3-0.7
		c-2.1,3.1-4.9,5.5-8.3,7.1c-4.1,1.9-8.1,2.2-12.2,1.4l-0.6,1.2c0.7,0.3,1.7,0.6,2.4,0.7c8.5,0.6,16.7-3.8,20.8-11.3l0.9-1.6
		L44.5,33.1z" />
</g>
    <g id="_x33_7Hazy_Moonlight" display="none">
	<rect display="inline" fill="#385CE0" width="48" height="48" />
        <path display="inline" fill="#FFFFFF" stroke="#FFFFFF" stroke-miterlimit="10" d="M14.3,18.5l0.6,0.8c2.7,3.6,7.2,5.3,11.6,4.3
		c6.2-1.3,10.1-7.3,8.7-13.4c-0.9-4.3-4.4-7.7-8.8-8.6l-1-0.2l0.6,0.8c0.9,1.2,1.5,2.6,1.8,4c1.2,5.7-2.4,11.3-8.2,12.6
		c-1.5,0.3-3,0.3-4.5,0L14.3,18.5z M16.1,19.6c1.3,0.2,2.6,0.1,3.8-0.2C26.1,18.1,30,12.1,28.6,6c-0.3-1.2-0.7-2.4-1.4-3.5
		c5.6,1.7,8.8,7.6,7,13.2s-7.7,8.7-13.4,7C19,22.1,17.4,21.1,16.1,19.6z" />
        <path display="inline" fill="none" stroke="#FFFFFF" stroke-width="2" stroke-miterlimit="10"
            d="M0.5,24.5
		c4.6-1.3,14.7-4.8,22.4-0.1c2.8,1.7,18.6,8.1,24.1-0.1" />
        <path display="inline" fill="none" stroke="#FFFFFF" stroke-width="2" stroke-miterlimit="10"
            d="M0.9,33.1
		c4.6-1.3,14.7-4.8,22.4-0.1c2.8,1.7,18.6,8.1,24.1-0.1" />
        <path display="inline" fill="none" stroke="#FFFFFF" stroke-width="2" stroke-miterlimit="10"
            d="M0.9,42.3
		c4.6-1.3,14.7-4.8,22.4-0.1c2.8,1.7,18.6,8.1,24.1-0.1" />
</g>
    <g id="_x33_8Mostly_Cloudy" display="none">
	<rect display="inline" fill="#385CE0" width="48" height="48" />
        <g display="inline">
		<path fill="none" stroke="#FFFFFF" stroke-width="2" stroke-miterlimit="10" d="M38.6,28.8c-0.9-6.9-7-9.1-11.8-9.1
			c-6.1,0-10,6.7-10.5,8.2c-1.2-1-5.2-1.6-6.1-1.5c-3.6,0.2-7.2,2.8-7.9,7.5c-0.7,4.8,2.9,9.7,7.9,9.7l29.7,0
			C48.1,43.8,49.6,27.9,38.6,28.8z" />
            <path fill="#FFFFFF" stroke="#FFFFFF" stroke-miterlimit="10" d="M1.5,20.1L2,21c2.2,3.9,6.6,6.1,11,5.6
			c6.3-0.6,10.9-6.1,10.2-12.4c-0.4-4.4-3.5-8.2-7.7-9.6l-0.9-0.3l0.5,0.8c0.8,1.3,1.2,2.7,1.4,4.2c0.6,5.8-3.7,11-9.6,11.6
			c-1.5,0.2-3,0-4.5-0.5L1.5,20.1z M3.2,21.4c1.2,0.3,2.5,0.4,3.8,0.3c6.3-0.6,10.9-6.1,10.2-12.4c-0.1-1.3-0.5-2.5-1-3.7
			c5.4,2.4,7.9,8.6,5.5,14S13,27.4,7.6,25C5.8,24.3,4.3,23,3.2,21.4z" />
	</g>
</g>
    <g id="_x33_9Partly_Cloudy_with_Showers" display="none">
	<rect display="inline" fill="#385CE0" width="48" height="48" />
        <path display="inline" fill="#FFFFFF" d="M27.9,38.8c-1.5,3.4,0.8,5.4,2.7,5.4s4.3-1.7,2.7-5.4c-1.3-2.9-2.7-5.1-2.7-5.1
		S29.1,36.1,27.9,38.8z" />
        <path display="inline" fill="#FFFFFF" stroke="#FFFFFF" stroke-miterlimit="10" d="M23.7,44.7c-7.9,0-15.5-4.5-19-12.1
		C-0.2,22,4.3,9.5,14.9,4.5c-1,2.3-1.6,4.8-1.8,7.3c-0.5,7.3,1.1,12.7,6.1,17.2l0.7-1.4C16.1,23.6,14,18,14.5,12
		c0.2-3,1.1-5.9,2.5-8.5l0.9-1.7l-1.8,0.7C7.8,5.5,2,13.1,1.3,21.9c-1,12.4,8.3,23.3,20.8,24.2c0.7,0.1,1.3,0.1,2,0.1L23.7,44.7z" />
        <path display="inline" fill="none" stroke="#FFFFFF" stroke-width="2" stroke-miterlimit="10"
            d="M25.4,36.4c-11,0.8-8-12.1-0.5-10
		c0.7-4.4,4.4-5.7,7.3-5.6c3.7,0.1,5.9,4.5,6.2,5.4c0.4-0.3,1.7-1.2,3.7-0.9c2.2,0.4,4.5,2,4.6,5c0.4,5.8-5.4,6.2-8.5,6.1" />
</g>
    <g id="_x34_0Mostly_Cloudy_with_Showers">
	<rect display="none" fill="#385CE0" width="48" height="48" />
        <path fill="none" stroke="#FFFFFF" stroke-width="2" stroke-miterlimit="10" d="M34.9,39.1c12.9,1.7,13.2-15.7,2.7-14.8
		c-0.8-6.6-6.6-8.7-11.2-8.6c-5.8,0-9.5,6.4-10,7.8c-1.1-0.9-4.9-1.5-5.8-1.5c-3.4,0.2-6.9,2.7-7.6,7.2c-0.7,4.6,3.3,9.7,10.2,9.3" />
        <path fill="#FFFFFF" stroke="#FFFFFF" stroke-miterlimit="10" d="M22.6,40.1c1.9,4.1-0.9,6.6-3.4,6.6s-5.3-2-3.3-6.6
		c1.6-3.6,3.3-6.3,3.3-6.3S21,36.8,22.6,40.1z" />
        <path fill="#FFFFFF" stroke="#FFFFFF" stroke-miterlimit="10" d="M31.4,33.7c1.9,4.1-0.9,6.6-3.4,6.6s-5.3-2-3.3-6.6
		c1.6-3.6,3.3-6.3,3.3-6.3S29.9,30.4,31.4,33.7z" />
        <path fill="#FFFFFF" stroke="#FFFFFF" stroke-miterlimit="10" d="M2.9,16.7l0.5,0.8C5.7,21,9.9,22.8,14,22.1
		c5.8-0.9,9.8-6.3,8.9-12.1c-0.7-4.1-3.7-7.5-7.7-8.6l-0.9-0.2L14.8,2c0.8,1.2,1.3,2.5,1.5,3.9c0.9,5.4-2.9,10.5-8.3,11.3
		c-1.4,0.2-2.8,0.1-4.2-0.2L2.9,16.7z M4.5,17.8c1.2,0.2,2.4,0.2,3.6,0c5.8-0.9,9.8-6.3,8.9-12.1c-0.2-1.2-0.6-2.3-1.1-3.4
		c5.2,1.9,7.8,7.6,5.9,12.7S14,22.9,8.9,21C7.2,20.3,5.6,19.3,4.5,17.8z" />
</g>
    <g id="_x34_1Partly_Cloudy_with_Thunderstorms" display="none">
	<rect display="inline" fill="#385CE0" width="48" height="48" />
        <path display="inline" fill="#FFFFFF" stroke="#FFFFFF" stroke-miterlimit="10" d="M23.7,44.3c-7.9,0-15.4-4.5-19-12.1
		c-4.9-10.5-0.4-23.1,10.2-28c-1,2.3-1.6,4.8-1.8,7.3c-0.5,7.2,1.1,12.7,6.1,17.2l0.7-1.4c-3.7-4.1-5.8-9.7-5.4-15.7
		c0.2-3,1.1-5.9,2.5-8.5L18,1.4l-1.8,0.7C7.8,5.1,2.1,12.7,1.4,21.5c-1,12.4,8.3,23.2,20.7,24.2c0.7,0,1.3,0.1,2,0.1L23.7,44.3z" />
        <path display="inline" fill="none" stroke="#FFFFFF" stroke-width="2" stroke-miterlimit="10"
            d="M25.4,36c-11,0.8-7.9-12.1-0.5-10
		c0.7-4.4,4.4-5.7,7.3-5.5c3.7,0.1,5.9,4.5,6.2,5.4c0.4-0.3,1.7-1.2,3.7-0.9c2.2,0.4,4.5,2,4.6,5c0.4,5.8-5.4,6.2-8.5,6.1" />
        <polygon display="inline" fill="#FFFFFF"
            points="30.7,30.1 35.1,30.1 33,35.4 37.4,35.4 29.6,46.6 31.8,39 27.5,39 	" />
</g>
    <g id="_x34_2Mostly_Cloudy_with_Thunderstorms" display="none">
	<rect display="inline" fill="#385CE0" width="48" height="48" />
        <path display="inline" fill="none" stroke="#FFFFFF" stroke-width="2" stroke-miterlimit="10"
            d="M33.7,35.3
		c11.5,1.5,11.8-14,2.4-13.2c-0.7-5.9-5.9-7.7-10-7.7c-5.2,0-8.5,5.7-8.9,6.9c-1-0.8-4.4-1.3-5.2-1.3c-3.1,0.1-6.1,2.4-6.7,6.4
		c-0.6,4.1,2.9,8.7,9.1,8.3" />
        <path display="inline" fill="#FFFFFF" stroke="#FFFFFF" stroke-miterlimit="10" d="M5.2,15.1l0.5,0.7c2.1,3.1,5.8,4.8,9.5,4.2
		c5.2-0.8,8.8-5.7,8-10.9c-0.6-3.7-3.3-6.7-7-7.7l-0.8-0.2l0.5,0.7c0.7,1.1,1.2,2.2,1.4,3.5c0.8,4.9-2.6,9.4-7.5,10.2
		c-1.3,0.2-2.5,0.1-3.8-0.2L5.2,15.1z M6.6,16.1c1.1,0.2,2.2,0.2,3.2,0c5.2-0.8,8.8-5.7,8-10.9c-0.2-1.1-0.5-2.1-1-3
		c4.7,1.7,7,6.8,5.3,11.4c-1.7,4.6-6.9,6.9-11.6,5.2C9,18.4,7.7,17.4,6.6,16.1z" />
        <polygon display="inline" fill="#FFFFFF"
            points="21.8,25.6 27.5,25.6 24.8,32.4 30.5,32.4 20.5,46.8 23.2,37.1 17.6,37.1 	" />
</g>
    <g id="_x34_3Mostly_Cloudy_with_Flurries" display="none">
	<rect display="inline" fill="#385CE0" width="48" height="48" />
        <path display="inline" fill="none" stroke="#FFFFFF" stroke-width="2" stroke-miterlimit="10"
            d="M35.3,40.1
		c13.3,1.7,13.7-16.3,2.8-15.3c-0.8-6.8-6.9-9-11.6-8.9c-6,0-9.9,6.6-10.3,8.1c-1.2-1-5.1-1.6-6-1.5c-3.6,0.2-7.1,2.8-7.8,7.4
		C1.7,34.6,5.8,39.9,13,39.4" />
        <path display="inline" fill="#FFFFFF" stroke="#FFFFFF" stroke-miterlimit="10" d="M2.2,17l0.5,0.8c2.4,3.6,6.7,5.5,11,4.8
		c6-1,10.2-6.6,9.2-12.6c-0.7-4.3-3.8-7.7-8-8.9L14,0.9l0.5,0.8c0.8,1.2,1.3,2.6,1.6,4c0.9,5.6-3,10.9-8.6,11.8
		c-1.5,0.2-2.9,0.2-4.4-0.2L2.2,17z M3.8,18.1c1.2,0.2,2.5,0.2,3.7,0c6-1,10.2-6.6,9.2-12.6c-0.2-1.2-0.6-2.4-1.2-3.5
		c5.4,2,8.1,7.9,6.1,13.2s-8,8-13.3,6C6.6,20.7,5,19.6,3.8,18.1z" />
        <polygon display="inline" fill="#FFFFFF" points="30,40.8 29.1,40.8 29.7,40.3 29.1,39.8 27.9,40.8 25,40.8 27.1,38.7 28.6,38.7
		28.6,37.9 27.9,37.9 28.5,37.3 28,36.7 27.4,37.4 27.4,36.6 26.6,36.7 26.5,38.2 24.5,40.3 24.5,37.3 25.5,36.2 25,35.6 24.5,36.2
		24.5,35.3 23.7,35.3 23.7,36.2 23.2,35.6 22.7,36.2 23.7,37.3 23.7,40.3 21.6,38.2 21.6,36.7 20.8,36.6 20.8,37.4 20.2,36.7
		19.6,37.3 20.3,37.9 19.5,37.9 19.6,38.7 21.1,38.7 23.2,40.8 20.2,40.8 19.1,39.8 18.5,40.3 19,40.8 18.2,40.8 18.2,41.6 19,41.6
		18.5,42.1 19.1,42.6 20.2,41.6 23.2,41.6 21.1,43.7 19.6,43.7 19.5,44.5 20.3,44.5 19.6,45.1 20.2,45.6 20.8,45 20.8,45.8
		21.6,45.7 21.6,44.2 23.7,42.1 23.7,45.1 22.7,46.2 23.2,46.8 23.7,46.2 23.7,47.1 24.5,47.1 24.5,46.2 25,46.8 25.5,46.2
		24.5,45.1 24.5,42.1 26.5,44.2 26.6,45.7 27.4,45.7 27.4,45 28,45.6 28.5,45.1 27.9,44.5 28.6,44.5 28.6,43.7 27.1,43.6 25,41.6
		27.9,41.6 29.1,42.6 29.7,42.1 29.1,41.6 30,41.6 	" />
</g>
    <g id="_x34_4Mostly_Cloudy_with_Snow" display="none">
	<rect display="inline" fill="#385CE0" width="48" height="48" />
        <rect x="18" y="0.2" display="inline" fill="#FFFFFF" width="2.4" height="7.4" />
        <rect x="1.1" y="19.3" display="inline" fill="#FFFFFF" width="7.6" height="2.4" />

        <rect x="30.6" y="4.8" transform="matrix(0.6456 0.7637 -0.7637 0.6456 17.8654 -21.256)"
            display="inline" fill="#FFFFFF" width="2.4" height="7.6" />
        <polygon display="inline" fill="#FFFFFF" points="4.9,6.7 6.6,5 12,10.3 10.2,12 	" />
        <path display="inline" fill="none" stroke="#FFFFFF" stroke-width="2" stroke-miterlimit="10"
            d="M41.5,40.6
		c6.8,0.1,8-13.3-1.2-12.5c-0.7-5.8-5.9-7.7-9.9-7.6c-5.1,0-8.4,5.6-8.8,6.9c-1-0.8-4.4-1.3-5.1-1.3c-3,0.1-6.1,2.4-6.7,6.3
		c-0.6,4.1,2.4,8.2,6.7,8.2" />
        <path display="inline" fill="none" stroke="#FFFFFF" stroke-width="2" stroke-miterlimit="10"
            d="M15.7,26.2c0.2,0,0.6,0,0.8,0
		c0.7,0,4.1,0.5,5.1,1.3c0.4-1.3,3.7-7,8.8-7c0.1,0,0.1,0,0.2,0c0-0.1,0-0.1,0-0.2c0-4.5-3.9-8.1-8.6-8.1c-4.8,0-8.6,3.7-8.6,8.2
		C13.3,22.8,14.1,24.7,15.7,26.2z" />
        <polygon display="inline" fill="#FFFFFF" points="29.7,42.1 28.9,42.1 29.4,41.7 28.9,41.2 27.9,42.1 25.2,42.1 27.1,40.3
		28.5,40.2 28.5,39.5 27.8,39.5 28.4,39 27.9,38.5 27.4,39 27.4,38.4 26.7,38.4 26.6,39.8 24.7,41.6 24.7,39 25.7,38 25.2,37.5
		24.7,37.9 24.7,37.2 24.1,37.2 24.1,37.9 23.6,37.5 23.1,38 24.1,39 24.1,41.6 22.2,39.8 22.1,38.4 21.4,38.4 21.4,39 20.9,38.5
		20.4,39 21,39.5 20.3,39.5 20.3,40.2 21.7,40.2 23.6,42.1 20.9,42.1 19.9,41.2 19.4,41.7 19.9,42.1 19.1,42.1 19.1,42.8 19.9,42.8
		19.4,43.2 19.9,43.7 20.9,42.8 23.6,42.8 21.7,44.7 20.3,44.7 20.3,45.4 21,45.4 20.4,46 20.9,46.4 21.4,45.9 21.4,46.5 22.1,46.5
		22.2,45.2 24.1,43.3 24.1,45.9 23.1,46.9 23.6,47.5 24.1,47 24.1,47.8 24.7,47.8 24.7,47 25.2,47.5 25.7,46.9 24.7,45.9 24.7,43.3
		26.6,45.1 26.7,46.5 27.4,46.5 27.4,45.9 27.9,46.4 28.4,46 27.8,45.4 28.5,45.4 28.5,44.7 27.1,44.7 25.2,42.8 27.9,42.8
		28.9,43.7 29.4,43.2 28.9,42.8 29.7,42.8 	" />
        <polygon display="inline" fill="#FFFFFF" points="39.9,37.7 39.2,37.7 39.6,37.2 39.1,36.7 38.1,37.7 35.5,37.7 37.3,35.8
		38.7,35.7 38.7,35 38.1,35.1 38.6,34.5 38.1,34 37.6,34.6 37.6,33.9 36.9,34 36.8,35.3 35,37.2 35,34.6 35.9,33.5 35.4,33 35,33.5
		35,32.7 34.3,32.7 34.3,33.5 33.9,33 33.4,33.5 34.3,34.6 34.3,37.2 32.4,35.3 32.4,34 31.7,33.9 31.7,34.6 31.1,34 30.7,34.5
		31.2,35.1 30.6,35 30.6,35.7 31.9,35.8 33.8,37.7 31.2,37.7 30.2,36.7 29.6,37.2 30.1,37.7 29.4,37.7 29.4,38.4 30.1,38.4
		29.6,38.8 30.2,39.3 31.2,38.4 33.8,38.4 31.9,40.2 30.6,40.3 30.6,41 31.2,41 30.7,41.5 31.1,42 31.7,41.5 31.7,42.1 32.4,42.1
		32.4,40.7 34.3,38.8 34.3,41.5 33.4,42.5 33.9,43 34.3,42.5 34.3,43.3 35,43.3 35,42.5 35.4,43 35.9,42.5 35,41.5 35,38.8
		36.8,40.7 36.9,42.1 37.6,42.1 37.6,41.4 38.1,42 38.6,41.5 38.1,41 38.7,41 38.7,40.3 37.3,40.2 35.5,38.4 38.1,38.4 39.1,39.3
		39.6,38.8 39.2,38.4 39.9,38.4 	" />
</g>
</svg>
